<?xml version="1.0" encoding="utf-8"?>
<!-- Generator: Adobe Illustrator 23.0.2, SVG Export Plug-In . SVG Version: 6.00 Build 0)  -->
<svg version="1.1" id="ash" xmlns="http://www.w3.org/2000/svg" xmlns:xlink="http://www.w3.org/1999/xlink" x="0px" y="0px"
	 viewBox="0 0 50 50" style="enable-background:new 0 0 50 50;" xml:space="preserve">
<g>
	<path d="M37.9,24.55c0.05,2.72,0,5.44-0.21,8.15c-0.07,1.07-0.93,1.7-1.79,1.87c-1.1,0.22-2.1-0.45-2.54-1.44
		c-0.42-0.97-0.33-2.06-0.61-3.07c-0.29-1.06-0.77-2.05-1.4-2.95c-1.8-2.56-4.29-3.96-7.41-4.02c-7.5-0.16-8.76,8.74-6.56,14.25
		c0.56,1.4,1.06,2.28,2.57,2.75c1.52,0.47,3.19,0.22,4.34-0.94c1.41-1.41,1.45-3.44,1.59-5.3c0.09-1.19,0.21-2.73,1.8-2.68
		c0.72,0.02,1.21,0.39,1.58,0.97c0.39,0.62,0.59,1.31,0.61,2.04c0.06,1.6,0,3.18-0.56,4.71c-1.03,2.84-2.92,4.82-5.85,5.7
		c-3.06,0.92-6.23-0.2-8.43-2.43c-3.02-3.05-3.38-7.88-3.14-11.95c0.07-1.22,0.25-2.43,0.44-3.64c0.23-1.51,0.99-2.79,1.95-3.95
		c2.05-2.49,4.72-3.9,7.89-4.4c2.41-0.38,4.59,0.26,6.68,1.4c1.62,0.89,2.56,2.2,3.88,3.39c0.13,0.11,0.32,0.17,0.47,0.08
		c0.16-0.09,0.19-0.3,0.18-0.49c-0.26-3.39-0.05-6.85-2.06-9.81c-3.3-4.86-11.35-4.58-12.33,1.99c-0.18,1.18-0.15,2.87-1.64,3.15
		c-1.1,0.21-2.22-0.71-2.31-1.81c-0.13-1.5-0.07-2.97,0.36-4.41c0.76-2.52,2.41-4.27,4.77-5.35c2.01-0.93,4.13-1.4,6.35-1.2
		c3.83,0.34,6.85,2.15,9.08,5.26c1.92,2.67,1.97,6,2.12,9.15C37.81,21.22,37.87,22.88,37.9,24.55z"/>
	<path d="M35.62,40.89c-1.41,0-2.51-1.13-2.55-2.53c-0.03-1.09,0.91-2.57,2.47-2.54c1.51,0.03,2.63,1.1,2.63,2.57
		C38.17,39.77,37.02,40.89,35.62,40.89z"/>
</g>
</svg>
